{
    "asset" : {
        "generator" : "Khronos glTF Blender I/O v1.8.19",
        "version" : "2.0"
    },
    "scene" : 0,
    "scenes" : [
        {
            "name" : "Scene",
            "nodes" : [
                0
            ]
        }
    ],
    "nodes" : [
        {
            "mesh" : 0,
            "name" : "Spinner4",
            "scale" : [
                1.3190383469918743e-06,
                4.830455509363674e-06,
                6.4678260969230905e-06
            ],
            "translation" : [
                0.0021533966064453125,
                0.01637665182352066,
                0.0010155364871025085
            ]
        }
    ],
    "animations" : [
        {
            "channels" : [
                {
                    "sampler" : 0,
                    "target" : {
                        "node" : 0,
                        "path" : "translation"
                    }
                },
                {
                    "sampler" : 1,
                    "target" : {
                        "node" : 0,
                        "path" : "scale"
                    }
                },
                {
                    "sampler" : 2,
                    "target" : {
                        "node" : 0,
                        "path" : "rotation"
                    }
                }
            ],
            "name" : "1",
            "samplers" : [
                {
                    "input" : 4,
                    "interpolation" : "LINEAR",
                    "output" : 5
                },
                {
                    "input" : 6,
                    "interpolation" : "LINEAR",
                    "output" : 7
                },
                {
                    "input" : 6,
                    "interpolation" : "LINEAR",
                    "output" : 8
                }
            ]
        }
    ],
    "materials" : [
        {
            "doubleSided" : true,
            "emissiveFactor" : [
                1,
                1,
                1
            ],
            "emissiveTexture" : {
                "index" : 0
            },
            "name" : "Slot.001",
            "pbrMetallicRoughness" : {
                "baseColorTexture" : {
                    "index" : 1
                },
                "roughnessFactor" : 0.858578622341156
            }
        }
    ],
    "meshes" : [
        {
            "name" : "Mesh.022",
            "primitives" : [
                {
                    "attributes" : {
                        "POSITION" : 0,
                        "NORMAL" : 1,
                        "TEXCOORD_0" : 2
                    },
                    "indices" : 3,
                    "material" : 0
                }
            ]
        }
    ],
    "textures" : [
        {
            "sampler" : 0,
            "source" : 0
        },
        {
            "sampler" : 0,
            "source" : 0
        }
    ],
    "images" : [
        {
            "mimeType" : "image/png",
            "name" : "Slot5",
            "uri" : "Slot5.png"
        }
    ],
    "accessors" : [
        {
            "bufferView" : 0,
            "componentType" : 5126,
            "count" : 120,
            "max" : [
                146.6944122314453,
                19.4676513671875,
                14.471392631530762
            ],
            "min" : [
                -146.6944122314453,
                -19.4676513671875,
                -14.471391677856445
            ],
            "type" : "VEC3"
        },
        {
            "bufferView" : 1,
            "componentType" : 5126,
            "count" : 120,
            "type" : "VEC3"
        },
        {
            "bufferView" : 2,
            "componentType" : 5126,
            "count" : 120,
            "type" : "VEC2"
        },
        {
            "bufferView" : 3,
            "componentType" : 5123,
            "count" : 432,
            "type" : "SCALAR"
        },
        {
            "bufferView" : 4,
            "componentType" : 5126,
            "count" : 2,
            "max" : [
                8.666666666666666
            ],
            "min" : [
                5.3
            ],
            "type" : "SCALAR"
        },
        {
            "bufferView" : 5,
            "componentType" : 5126,
            "count" : 2,
            "type" : "VEC3"
        },
        {
            "bufferView" : 6,
            "componentType" : 5126,
            "count" : 102,
            "max" : [
                8.666666666666666
            ],
            "min" : [
                5.3
            ],
            "type" : "SCALAR"
        },
        {
            "bufferView" : 7,
            "componentType" : 5126,
            "count" : 102,
            "type" : "VEC3"
        },
        {
            "bufferView" : 8,
            "componentType" : 5126,
            "count" : 102,
            "type" : "VEC4"
        }
    ],
    "bufferViews" : [
        {
            "buffer" : 0,
            "byteLength" : 1440,
            "byteOffset" : 0
        },
        {
            "buffer" : 0,
            "byteLength" : 1440,
            "byteOffset" : 1440
        },
        {
            "buffer" : 0,
            "byteLength" : 960,
            "byteOffset" : 2880
        },
        {
            "buffer" : 0,
            "byteLength" : 864,
            "byteOffset" : 3840
        },
        {
            "buffer" : 0,
            "byteLength" : 8,
            "byteOffset" : 4704
        },
        {
            "buffer" : 0,
            "byteLength" : 24,
            "byteOffset" : 4712
        },
        {
            "buffer" : 0,
            "byteLength" : 408,
            "byteOffset" : 4736
        },
        {
            "buffer" : 0,
            "byteLength" : 1224,
            "byteOffset" : 5144
        },
        {
            "buffer" : 0,
            "byteLength" : 1632,
            "byteOffset" : 6368
        }
    ],
    "samplers" : [
        {
            "magFilter" : 9729,
            "minFilter" : 9987
        }
    ],
    "buffers" : [
        {
            "byteLength" : 8000,
            "uri" : "Spinner_4.bin"
        }
    ]
}
